<svg width="30px" height="30px" viewBox="0 0 30 30" version="1.1" xmlns="http://www.w3.org/2000/svg" xmlns:xlink="http://www.w3.org/1999/xlink">
    <g stroke="none" stroke-width="1" fill="none" fill-rule="evenodd">
        <g id="done" fill="#2AB630">
            <path d="M12.2915032,29.3723762 L29.6533255,6.13388291 C30.1155582,4.94173473 30.1155582,4.05904129 29.6533255,3.48580261 C29.1910929,2.91256393 28.4650806,1.96575325 27.4752885,0.645370582 C26.7704812,-0.215123527 26.059921,-0.215123527 25.3436078,0.645370582 C24.6272946,1.50586469 19.9428747,7.72911737 11.2903479,19.3151286 L4.71743999,10.6180826 C3.9260057,9.80084217 3.22395603,9.80084217 2.61129099,10.6180826 C1.99862595,11.435323 1.27869936,12.3913569 0.451511218,13.4861843 C-0.150503739,14.6530163 -0.150503739,15.5871053 0.451511218,16.2884513 C1.05352618,16.9897972 4.373119,21.3511055 10.4102897,29.3723762 C10.7616473,29.7907921 11.0550001,30 11.2903479,30 C11.5256957,30 11.8594142,29.7907921 12.2915032,29.3723762 Z"></path>
        </g>
    </g>
</svg>
